<svg width="54" height="17" viewBox="0 0 54 17" fill="none" xmlns="http://www.w3.org/2000/svg">
<g filter="url(#filter0_d_107_43)">
<rect x="4" y="2" width="46" height="9" rx="2" fill="white"/>
<path d="M10.8163 9C10.3991 9 10.0499 8.89428 9.76871 8.68284C9.48753 8.47139 9.34694 8.17703 9.34694 7.79975V6.62438C9.34694 6.4461 9.39229 6.301 9.48299 6.18905C9.57823 6.07711 9.68254 6.00249 9.79592 5.96517C9.91383 5.92371 10.0272 5.86774 10.1361 5.79726C10.2494 5.72264 10.3197 5.63143 10.3469 5.52363H9V5.29975H9.68027C9.95692 5.29975 10.1429 5.10282 10.2381 4.70896C10.2698 4.57629 10.3061 4.33997 10.3469 4H10.5918L10.5986 5.29975H11.8912V5.52363H10.5986V7.89925C10.5986 8.14386 10.6599 8.32836 10.7823 8.45274C10.9048 8.57711 11.0612 8.6393 11.2517 8.6393C11.4921 8.6393 11.7188 8.54187 11.932 8.34702L12 8.53358C11.7234 8.84453 11.3288 9 10.8163 9Z" fill="#155BD5"/>
<path d="M18.484 5.363C18.409 5.339 18.3295 5.318 18.2455 5.3C18.1615 5.279 18.0685 5.2625 17.9665 5.2505C17.8675 5.2355 17.7625 5.228 17.6515 5.228C17.4715 5.228 17.3185 5.267 17.1925 5.345C17.0665 5.423 16.963 5.5235 16.882 5.6465C16.804 5.7665 16.747 5.9015 16.711 6.0515C16.675 6.2015 16.657 6.35 16.657 6.497C16.657 6.683 16.6825 6.8525 16.7335 7.0055C16.7875 7.1555 16.8595 7.2845 16.9495 7.3925C17.0425 7.4975 17.149 7.5785 17.269 7.6355C17.392 7.6925 17.521 7.721 17.656 7.721C17.782 7.721 17.8975 7.715 18.0025 7.703C18.1075 7.688 18.1975 7.673 18.2725 7.658C18.3595 7.64 18.4375 7.619 18.5065 7.595L18.583 7.9145C18.502 7.9415 18.412 7.9655 18.313 7.9865C18.229 8.0045 18.1315 8.021 18.0205 8.036C17.9095 8.051 17.788 8.0585 17.656 8.0585C17.419 8.0585 17.2105 8.0195 17.0305 7.9415C16.8535 7.8635 16.705 7.7555 16.585 7.6175C16.468 7.4765 16.3795 7.3115 16.3195 7.1225C16.2595 6.9305 16.2295 6.7205 16.2295 6.4925C16.2295 6.2315 16.2655 6.002 16.3375 5.804C16.4095 5.603 16.5085 5.435 16.6345 5.3C16.7605 5.165 16.9105 5.063 17.0845 4.994C17.2585 4.925 17.449 4.8905 17.656 4.8905C17.782 4.8905 17.899 4.898 18.007 4.913C18.118 4.925 18.2185 4.9415 18.3085 4.9625C18.4015 4.9835 18.487 5.006 18.565 5.03L18.484 5.363ZM19.6134 6.8795C19.6134 7.1705 19.6779 7.388 19.8069 7.532C19.9389 7.673 20.1159 7.7435 20.3379 7.7435C20.5569 7.7435 20.7279 7.673 20.8509 7.532C20.9739 7.391 21.0354 7.1795 21.0354 6.8975C21.0354 6.5975 20.9694 6.374 20.8374 6.227C20.7084 6.08 20.5314 6.0065 20.3064 6.0065C20.0814 6.0065 19.9089 6.08 19.7889 6.227C19.6719 6.371 19.6134 6.5885 19.6134 6.8795ZM19.2309 6.875C19.2309 6.647 19.2669 6.458 19.3389 6.308C19.4109 6.155 19.5024 6.0335 19.6134 5.9435C19.7244 5.8505 19.8429 5.786 19.9689 5.75C20.0979 5.711 20.2194 5.6915 20.3334 5.6915C20.4414 5.6915 20.5584 5.7095 20.6844 5.7455C20.8134 5.7785 20.9319 5.84 21.0399 5.93C21.1479 6.017 21.2379 6.1355 21.3099 6.2855C21.3819 6.4325 21.4179 6.62 21.4179 6.848C21.4179 7.085 21.3804 7.2815 21.3054 7.4375C21.2334 7.5935 21.1419 7.718 21.0309 7.811C20.9199 7.901 20.7999 7.964 20.6709 8C20.5419 8.039 20.4219 8.0585 20.3109 8.0585C20.1969 8.0585 20.0769 8.0405 19.9509 8.0045C19.8249 7.9685 19.7079 7.907 19.5999 7.82C19.4949 7.73 19.4064 7.6085 19.3344 7.4555C19.2654 7.3025 19.2309 7.109 19.2309 6.875ZM22.3504 6.1865C22.3534 6.1235 22.3459 5.987 22.3279 5.777L22.6609 5.732L22.7104 6.02C22.8004 5.96 22.8889 5.9075 22.9759 5.8625C23.0659 5.8175 23.1574 5.7785 23.2504 5.7455C23.3434 5.7095 23.4334 5.6915 23.5204 5.6915C23.6434 5.6915 23.7454 5.7065 23.8264 5.7365C23.9104 5.7635 23.9779 5.81 24.0289 5.876C24.0799 5.942 24.1159 6.029 24.1369 6.137C24.1609 6.245 24.1729 6.38 24.1729 6.542V8H23.8129V6.5825C23.8129 6.4925 23.8114 6.413 23.8084 6.344C23.8054 6.272 23.7919 6.212 23.7679 6.164C23.7469 6.113 23.7124 6.074 23.6644 6.047C23.6194 6.02 23.5549 6.0065 23.4709 6.0065C23.3929 6.0065 23.3104 6.0245 23.2234 6.0605C23.1364 6.0935 23.0509 6.1325 22.9669 6.1775C22.8829 6.2225 22.7974 6.275 22.7104 6.335V8H22.3504V6.1865ZM25.7384 5.0615V5.7365H26.3909V6.029H25.7384V7.2305C25.7384 7.3295 25.7399 7.412 25.7429 7.478C25.7489 7.544 25.7594 7.5965 25.7744 7.6355C25.7894 7.6745 25.8104 7.703 25.8374 7.721C25.8644 7.736 25.8989 7.7435 25.9409 7.7435C26.0549 7.7405 26.1869 7.6985 26.3369 7.6175L26.4449 7.892C26.3459 7.958 26.2529 8.0015 26.1659 8.0225C26.0819 8.0465 25.9979 8.0585 25.9139 8.0585C25.7159 8.0585 25.5764 8.003 25.4954 7.892C25.4174 7.778 25.3784 7.5905 25.3784 7.3295V6.029H24.9644V5.7365H25.3784V5.1065L25.7384 5.0615ZM28.516 6.9605C28.456 6.9635 28.399 6.9665 28.345 6.9695C28.291 6.9725 28.237 6.977 28.183 6.983C28.132 6.986 28.0855 6.9905 28.0435 6.9965C27.8275 7.0235 27.6745 7.0715 27.5845 7.1405C27.4945 7.2065 27.4495 7.3025 27.4495 7.4285C27.4495 7.5335 27.481 7.613 27.544 7.667C27.61 7.718 27.6955 7.7435 27.8005 7.7435C27.9445 7.7435 28.072 7.7195 28.183 7.6715C28.297 7.6205 28.408 7.5545 28.516 7.4735V6.9605ZM28.5115 7.7885C28.3705 7.8695 28.2385 7.9355 28.1155 7.9865C27.9955 8.0345 27.865 8.0585 27.724 8.0585C27.523 8.0585 27.3625 8.0105 27.2425 7.9145C27.1255 7.8155 27.067 7.6535 27.067 7.4285C27.067 7.3115 27.097 7.2095 27.157 7.1225C27.217 7.0355 27.295 6.9635 27.391 6.9065C27.49 6.8465 27.601 6.8 27.724 6.767C27.847 6.734 27.973 6.713 28.102 6.704C28.156 6.698 28.2265 6.6935 28.3135 6.6905C28.4005 6.6845 28.468 6.68 28.516 6.677C28.516 6.572 28.513 6.479 28.507 6.398C28.501 6.314 28.483 6.2435 28.453 6.1865C28.423 6.1265 28.378 6.0815 28.318 6.0515C28.261 6.0215 28.1785 6.0065 28.0705 6.0065C27.9835 6.0065 27.8995 6.0125 27.8185 6.0245C27.7375 6.0335 27.6655 6.044 27.6025 6.056C27.5275 6.071 27.4585 6.0875 27.3955 6.1055L27.3235 5.795C27.3985 5.777 27.4795 5.7605 27.5665 5.7455C27.6415 5.7305 27.7285 5.7185 27.8275 5.7095C27.9265 5.6975 28.033 5.6915 28.147 5.6915C28.3 5.6915 28.423 5.714 28.516 5.759C28.612 5.804 28.6855 5.8655 28.7365 5.9435C28.7905 6.0185 28.8265 6.1055 28.8445 6.2045C28.8655 6.3005 28.876 6.4025 28.876 6.5105V7.5905C28.876 7.6325 28.876 7.6775 28.876 7.7255C28.879 7.7705 28.882 7.8155 28.885 7.8605C28.891 7.9055 28.897 7.952 28.903 8L28.5565 8.036L28.5115 7.7885ZM31.3194 6.065C31.2684 6.053 31.1979 6.041 31.1079 6.029C31.0179 6.014 30.9264 6.0065 30.8334 6.0065C30.6984 6.0065 30.5874 6.0335 30.5004 6.0875C30.4164 6.1415 30.3504 6.212 30.3024 6.299C30.2544 6.383 30.2214 6.4775 30.2034 6.5825C30.1854 6.6845 30.1764 6.785 30.1764 6.884C30.1764 7.037 30.1959 7.169 30.2349 7.28C30.2739 7.388 30.3249 7.4765 30.3879 7.5455C30.4539 7.6145 30.5289 7.6655 30.6129 7.6985C30.6969 7.7285 30.7854 7.7435 30.8784 7.7435C30.9414 7.7435 31.0014 7.7405 31.0584 7.7345C31.1184 7.7255 31.1724 7.7165 31.2204 7.7075C31.2714 7.6955 31.3194 7.682 31.3644 7.667L31.4364 7.9685C31.3734 7.9865 31.3149 8.0015 31.2609 8.0135C31.2069 8.0255 31.1424 8.036 31.0674 8.045C30.9954 8.054 30.9174 8.0585 30.8334 8.0585C30.6684 8.0585 30.5214 8.0375 30.3924 7.9955C30.2634 7.9535 30.1539 7.886 30.0639 7.793C29.9769 7.7 29.9094 7.5785 29.8614 7.4285C29.8164 7.2785 29.7939 7.0955 29.7939 6.8795C29.7939 6.6695 29.8224 6.4895 29.8794 6.3395C29.9394 6.1865 30.0174 6.0635 30.1134 5.9705C30.2094 5.8745 30.3189 5.804 30.4419 5.759C30.5679 5.714 30.6984 5.6915 30.8334 5.6915C30.9054 5.6915 30.9744 5.696 31.0404 5.705C31.1094 5.711 31.1694 5.7185 31.2204 5.7275C31.2804 5.7395 31.3374 5.7515 31.3914 5.7635L31.3194 6.065ZM32.8113 5.0615V5.7365H33.4638V6.029H32.8113V7.2305C32.8113 7.3295 32.8128 7.412 32.8158 7.478C32.8218 7.544 32.8323 7.5965 32.8473 7.6355C32.8623 7.6745 32.8833 7.703 32.9103 7.721C32.9373 7.736 32.9718 7.7435 33.0138 7.7435C33.1278 7.7405 33.2598 7.6985 33.4098 7.6175L33.5178 7.892C33.4188 7.958 33.3258 8.0015 33.2388 8.0225C33.1548 8.0465 33.0708 8.0585 32.9868 8.0585C32.7888 8.0585 32.6493 8.003 32.5683 7.892C32.4903 7.778 32.4513 7.5905 32.4513 7.3295V6.029H32.0373V5.7365H32.4513V5.1065L32.8113 5.0615ZM35.9197 4.931H36.4012L37.0942 6.758C37.1332 6.863 37.1692 6.9605 37.2022 7.0505C37.2352 7.1375 37.2637 7.2155 37.2877 7.2845C37.3177 7.3625 37.3432 7.4345 37.3642 7.5005H37.3732C37.3912 7.4345 37.4137 7.3625 37.4407 7.2845C37.4647 7.2155 37.4917 7.1375 37.5217 7.0505C37.5517 6.9605 37.5877 6.863 37.6297 6.758L38.3362 4.931H38.8177L38.9752 8H38.5927L38.5162 6.3125C38.5102 6.1655 38.5057 6.041 38.5027 5.939C38.4997 5.837 38.4982 5.753 38.4982 5.687V5.498H38.4892C38.4712 5.543 38.4487 5.6045 38.4217 5.6825C38.3977 5.7485 38.3662 5.834 38.3272 5.939C38.2912 6.041 38.2462 6.1655 38.1922 6.3125L37.5577 8H37.1752L36.5362 6.3125C36.4792 6.1685 36.4327 6.0455 36.3967 5.9435C36.3607 5.8385 36.3307 5.753 36.3067 5.687C36.2797 5.609 36.2587 5.546 36.2437 5.498H36.2347C36.2377 5.546 36.2407 5.609 36.2437 5.687C36.2467 5.813 36.2422 6.0215 36.2302 6.3125L36.1402 8H35.7577L35.9197 4.931ZM41.6733 7.946C41.6043 7.967 41.5323 7.985 41.4573 8C41.3853 8.015 41.3043 8.0285 41.2143 8.0405C41.1273 8.0525 41.0358 8.0585 40.9398 8.0585C40.7898 8.0585 40.6503 8.0375 40.5213 7.9955C40.3923 7.9535 40.2798 7.886 40.1838 7.793C40.0878 7.7 40.0113 7.58 39.9543 7.433C39.9003 7.283 39.8733 7.1 39.8733 6.884C39.8733 6.689 39.9003 6.518 39.9543 6.371C40.0083 6.221 40.0818 6.0965 40.1748 5.9975C40.2708 5.8955 40.3818 5.819 40.5078 5.768C40.6368 5.717 40.7763 5.6915 40.9263 5.6915C41.0733 5.6915 41.2008 5.72 41.3088 5.777C41.4168 5.834 41.5053 5.912 41.5743 6.011C41.6463 6.107 41.6988 6.221 41.7318 6.353C41.7678 6.482 41.7858 6.6185 41.7858 6.7625L41.7183 6.9605H40.2648C40.2648 7.0535 40.2768 7.1465 40.3008 7.2395C40.3248 7.3325 40.3653 7.4165 40.4223 7.4915C40.4823 7.5665 40.5588 7.628 40.6518 7.676C40.7478 7.721 40.8663 7.7435 41.0073 7.7435C41.0973 7.7435 41.1798 7.739 41.2548 7.73C41.3298 7.718 41.3943 7.706 41.4483 7.694C41.5053 7.679 41.5578 7.6625 41.6058 7.6445L41.6733 7.946ZM41.4123 6.6725C41.4123 6.6515 41.4078 6.605 41.3988 6.533C41.3898 6.461 41.3688 6.386 41.3358 6.308C41.3028 6.23 41.2518 6.161 41.1828 6.101C41.1138 6.038 41.0223 6.0065 40.9083 6.0065C40.7823 6.0065 40.6788 6.0335 40.5978 6.0875C40.5168 6.1385 40.4523 6.2 40.4043 6.272C40.3563 6.344 40.3233 6.4175 40.3053 6.4925C40.2873 6.5675 40.2783 6.6275 40.2783 6.6725H41.4123Z" fill="black"/>
</g>
<defs>
<filter id="filter0_d_107_43" x="0" y="0" width="54" height="17" filterUnits="userSpaceOnUse" color-interpolation-filters="sRGB">
<feFlood flood-opacity="0" result="BackgroundImageFix"/>
<feColorMatrix in="SourceAlpha" type="matrix" values="0 0 0 0 0 0 0 0 0 0 0 0 0 0 0 0 0 0 127 0" result="hardAlpha"/>
<feOffset dy="2"/>
<feGaussianBlur stdDeviation="2"/>
<feComposite in2="hardAlpha" operator="out"/>
<feColorMatrix type="matrix" values="0 0 0 0 0 0 0 0 0 0 0 0 0 0 0 0 0 0 0.25 0"/>
<feBlend mode="normal" in2="BackgroundImageFix" result="effect1_dropShadow_107_43"/>
<feBlend mode="normal" in="SourceGraphic" in2="effect1_dropShadow_107_43" result="shape"/>
</filter>
</defs>
</svg>
