<svg width="30" height="55" viewBox="0 0 30 55" fill="none" xmlns="http://www.w3.org/2000/svg">
<path d="M18.1633 55C13.9909 55 10.4989 53.8371 7.68708 51.5112C4.87528 49.1853 3.46939 45.9473 3.46939 41.7973V28.8682C3.46939 26.9071 3.9229 25.3109 4.82993 24.0796C5.78231 22.8483 6.8254 22.0274 7.95918 21.6169C9.13832 21.1609 10.2721 20.5452 11.3605 19.7699C12.4943 18.949 13.1973 17.9457 13.4694 16.7599H0V14.2973H6.80272C9.56916 14.2973 11.4286 12.131 12.381 7.79851C12.6984 6.33914 13.0612 3.73964 13.4694 0H15.9184L15.9864 14.2973H28.9116V16.7599H15.9864V42.8918C15.9864 45.5825 16.5986 47.6119 17.8231 48.9801C19.0476 50.3483 20.6122 51.0323 22.517 51.0323C24.9206 51.0323 27.1882 49.9606 29.3197 47.8172L30 49.8694C27.2336 53.2898 23.288 55 18.1633 55Z" fill="#155BD5"/>
</svg>
