<svg width="110" height="41" viewBox="0 0 110 41" fill="none" xmlns="http://www.w3.org/2000/svg">
<path d="M26.9702 32H23.3711V17.8804H24.2412L25.4277 19.5547C26.0078 19.0273 26.667 18.623 27.4053 18.3418C28.1436 18.0518 28.9082 17.9067 29.6992 17.9067H32.8765V21.4927H29.6992C29.3213 21.4927 28.9653 21.563 28.6313 21.7036C28.2974 21.8442 28.0073 22.0376 27.7612 22.2837C27.5151 22.5298 27.3218 22.8198 27.1812 23.1538C27.0405 23.4878 26.9702 23.8438 26.9702 24.2217V32ZM46.1708 30.3521C45.8808 30.6157 45.5688 30.8662 45.2348 31.1035C44.9096 31.332 44.5668 31.5342 44.2064 31.71C43.8461 31.877 43.4726 32.0088 43.0858 32.1055C42.7079 32.2109 42.3212 32.2637 41.9257 32.2637C41.0556 32.2637 40.2382 32.1099 39.4735 31.8022C38.7089 31.4946 38.0365 31.0596 37.4564 30.4971C36.8852 29.9258 36.4325 29.2358 36.0985 28.4272C35.7733 27.6099 35.6107 26.6958 35.6107 25.6851V17.8804H39.1967V25.6851C39.1967 26.1597 39.267 26.5859 39.4076 26.9639C39.557 27.333 39.7548 27.645 40.0009 27.8999C40.247 28.1548 40.5326 28.3481 40.8578 28.48C41.1918 28.6118 41.5478 28.6777 41.9257 28.6777C42.2948 28.6777 42.642 28.5942 42.9672 28.4272C43.3012 28.2515 43.5912 28.0229 43.8373 27.7417C44.0834 27.4604 44.2768 27.144 44.4174 26.7925C44.558 26.4321 44.6283 26.063 44.6283 25.6851V17.8804H48.2274V32H47.3573L46.1708 30.3521ZM60.0848 32H51.8582V28.4141H60.0848C60.3309 28.4141 60.5418 28.3262 60.7176 28.1504C60.8934 27.9746 60.9813 27.7637 60.9813 27.5176C60.9813 27.2627 60.8934 27.0957 60.7176 27.0166C60.5418 26.9375 60.3309 26.8979 60.0848 26.8979H56.3406C55.7166 26.8979 55.1321 26.7793 54.5872 26.542C54.0423 26.3047 53.5677 25.9839 53.1634 25.5796C52.7591 25.1665 52.4383 24.6875 52.201 24.1426C51.9725 23.5977 51.8582 23.0132 51.8582 22.3892C51.8582 21.7651 51.9725 21.1807 52.201 20.6357C52.4383 20.0908 52.7591 19.6162 53.1634 19.2119C53.5677 18.8076 54.0423 18.4912 54.5872 18.2627C55.1321 18.0254 55.7166 17.9067 56.3406 17.9067H63.6312V21.4927H56.3406C56.0945 21.4927 55.8836 21.5806 55.7078 21.7563C55.532 21.9321 55.4441 22.1431 55.4441 22.3892C55.4441 22.644 55.532 22.8638 55.7078 23.0483C55.8836 23.2241 56.0945 23.312 56.3406 23.312H60.0848C60.7 23.312 61.2801 23.4175 61.825 23.6284C62.3699 23.8306 62.8445 24.1162 63.2488 24.4854C63.6531 24.8545 63.9739 25.2983 64.2112 25.8169C64.4485 26.3354 64.5672 26.9023 64.5672 27.5176C64.5672 28.1416 64.4485 28.7261 64.2112 29.271C63.9739 29.8071 63.6531 30.2817 63.2488 30.6948C62.8445 31.0991 62.3699 31.4199 61.825 31.6572C61.2801 31.8857 60.7 32 60.0848 32ZM71.4411 32H67.842V12.2642H71.4411V18.5C71.8718 18.1748 72.3156 17.9463 72.7727 17.8145C73.2297 17.6738 73.6955 17.6035 74.1701 17.6035C75.0402 17.6035 75.8576 17.7705 76.6223 18.1045C77.3869 18.4297 78.0505 18.8823 78.613 19.4624C79.1843 20.0337 79.6325 20.7061 79.9577 21.4795C80.2917 22.2441 80.4587 23.0615 80.4587 23.9316V32H76.8332V23.9316H76.8596C76.8596 23.5625 76.7893 23.2153 76.6486 22.8901C76.508 22.5562 76.3146 22.2661 76.0686 22.02C75.8225 21.7739 75.5368 21.5806 75.2116 21.4399C74.8864 21.2993 74.5393 21.229 74.1701 21.229C73.7922 21.229 73.4362 21.2993 73.1022 21.4399C72.7683 21.5806 72.4782 21.7739 72.2321 22.02C71.986 22.2661 71.7927 22.5562 71.6521 22.8901C71.5114 23.2153 71.4411 23.5625 71.4411 23.9316V32ZM88.6246 14.0439C88.6246 14.3779 88.5587 14.6899 88.4269 14.98C88.3038 15.27 88.1324 15.5249 87.9127 15.7446C87.693 15.9556 87.4337 16.127 87.1349 16.2588C86.8448 16.3818 86.5328 16.4434 86.1988 16.4434C85.8648 16.4434 85.5484 16.3818 85.2496 16.2588C84.9596 16.127 84.7047 15.9556 84.485 15.7446C84.274 15.5249 84.1026 15.27 83.9708 14.98C83.8478 14.6899 83.7862 14.3779 83.7862 14.0439C83.7862 13.7187 83.8478 13.4111 83.9708 13.1211C84.1026 12.8223 84.274 12.5674 84.485 12.3564C84.7047 12.1367 84.9596 11.9653 85.2496 11.8423C85.5484 11.7104 85.8648 11.6445 86.1988 11.6445C86.5328 11.6445 86.8448 11.7104 87.1349 11.8423C87.4337 11.9653 87.693 12.1367 87.9127 12.3564C88.1324 12.5674 88.3038 12.8223 88.4269 13.1211C88.5587 13.4111 88.6246 13.7187 88.6246 14.0439ZM88.005 32H84.3795V17.8804H88.005V32ZM99.1899 32C98.3198 32 97.5024 31.8374 96.7378 31.5122C95.9731 31.1782 95.3008 30.7256 94.7207 30.1543C94.1494 29.5742 93.6968 28.9019 93.3628 28.1372C93.0376 27.3726 92.875 26.5552 92.875 25.6851V21.4927H91.1216V17.9067H92.875V12.2642H96.4609V17.9067H101.919V21.4927H96.4609V25.6851C96.4609 26.063 96.5312 26.4189 96.6719 26.7529C96.8125 27.0781 97.0059 27.3638 97.252 27.6099C97.498 27.856 97.7881 28.0537 98.1221 28.2031C98.4561 28.3438 98.812 28.4141 99.1899 28.4141H101.919V32H99.1899Z" fill="black"/>
<path d="M13.3197 41C10.26 41 7.69917 40.1331 5.63719 38.3993C3.57521 36.6654 2.54422 34.2517 2.54422 31.158V21.5199C2.54422 20.058 2.8768 18.8682 3.54195 17.9502C4.24036 17.0323 5.00529 16.4204 5.83673 16.1144C6.70144 15.7745 7.53288 15.3155 8.33107 14.7376C9.16251 14.1256 9.678 13.3777 9.87755 12.4938H0V10.658H4.98866C7.01738 10.658 8.38095 9.04312 9.07937 5.81343C9.31217 4.72554 9.57823 2.78773 9.87755 0H11.6735L11.7234 10.658H21.2018V12.4938H11.7234V31.9739C11.7234 33.9797 12.1723 35.4925 13.0703 36.5124C13.9683 37.5323 15.1156 38.0423 16.5125 38.0423C18.2751 38.0423 19.938 37.2434 21.5011 35.6455L22 37.1754C19.9713 39.7251 17.0779 41 13.3197 41Z" fill="#155BD5"/>
</svg>
